#!OML:ASF X:\für Bonn\!DataBase\2005_08_12_Daniel\c3d\Daniel.ASF
:FULLY-SPECIFIED
:DEGREES
1
root -42.9615 17.527 -1.1573 647.959 90.1906 -1885.31
lowerback 36.0433 -2.43141 -0.960937
upperback 9.86109 -2.35519 -1.95917
thorax -7.0792 -0.589466 -0.760211
lowerneck -5.58521 0.5492 -7.73948
upperneck -4.98544 1.2827 1.81056
head -0.679375 0.818716 1.90161
rclavicle 4.53229e-014 3.57812e-015
rhumerus -64.7709 -4.09807 -71.8035
rradius 15.7458
rwrist 33.9502
rhand -14.7964 18.7952
rfingers 7.12502
rthumb 11.3611 -10.877
lclavicle 4.53229e-014 3.57812e-015
lhumerus -63.9062 15.7942 68.9804
lradius 29.7931
lwrist -14.6588
lhand -6.65899 -9.44806
lfingers 7.12502
lthumb 19.1988 19.6243
rfemur -30.8539 -2.21807 22.3126
rtibia 39.8129
rfoot -25.8012 2.90872
rtoes -10.5103
lfemur -33.4102 0.627103 -21.1588
ltibia 47.4222
lfoot -29.1929 -1.55921
ltoes -1.86036
2
root -42.9184 17.4576 -1.15894 644.344 90.213 -1889.26
lowerback 36.2825 -2.42363 -1.01196
upperback 9.78853 -2.36915 -1.95898
thorax -7.24105 -0.594941 -0.724325
lowerneck -5.74248 0.506598 -7.55745
upperneck -5.41142 1.23574 1.66096
head -0.782443 0.808273 1.81914
rclavicle -3.26007e-014 -6.75868e-015
rhumerus -64.5214 -4.32121 -71.9802
rradius 16.0491
rwrist 31.1497
rhand -14.6109 18.9176
rfingers 7.12502
rthumb 11.54 -10.7447
lclavicle -3.26007e-014 -6.75868e-015
lhumerus -63.8794 16.1546 69.1216
lradius 29.9355
lwrist -13.3578
lhand -6.2037 -8.87568
lfingers 7.12502
lthumb 19.6365 20.1526
rfemur -32.1731 -2.7909 22.385
rtibia 41.6463
rfoot -26.0098 3.5503
rtoes -10.5032
lfemur -34.3847 0.634423 -21.2092
ltibia 48.7974
lfoot -29.4814 -1.3732
ltoes -1.85964
3
root -42.8737 17.3819 -1.16169 639.315 90.1988 -1894.58
lowerback 36.5615 -2.41844 -1.02425
upperback 9.669 -2.37906 -1.95089
thorax -7.46966 -0.599731 -0.700667
lowerneck -5.88236 0.468136 -7.40078
upperneck -5.78484 1.19273 1.5176
head -0.872453 0.79846 1.74372
rclavicle -2.22639e-014 -3.45885e-014
rhumerus -64.1369 -4.73015 -71.9129
rradius 16.1522
rwrist 28.8295
rhand -14.5079 19.083
rfingers 7.12502
rthumb 11.6394 -10.5737
lclavicle -2.22639e-014 -3.45885e-014
lhumerus -63.8138 16.6294 69.0931
lradius 29.8724
lwrist -12.3239
lhand -5.86106 -8.56818
lfingers 7.12502
lthumb 19.9659 20.4261
rfemur -33.4855 -3.26008 22.4909
rtibia 43.5791
rfoot -26.284 4.1158
rtoes -10.5719
lfemur -35.3366 0.556864 -21.2145
ltibia 50.2517
lfoot -29.7917 -1.12871
ltoes -1.62678
4
root -42.8266 17.2993 -1.16437 624.325 90.2127 -1909.8
lowerback 36.8374 -2.38959 -1.05644
upperback 9.56755 -2.36521 -1.95255
thorax -7.67619 -0.59245 -0.686202
lowerneck -6.07799 0.408585 -7.25385
upperneck -6.14233 1.12674 1.37
head -0.947232 0.777573 1.66897
rclavicle 2.62396e-014 1.55052e-014
rhumerus -63.5953 -5.48948 -71.4257
rradius 16.038
rwrist 27.1997
rhand -14.3917 19.3439
rfingers 7.12502
rthumb 11.7514 -10.3065
lclavicle 2.62396e-014 1.55052e-014
lhumerus -63.5969 17.1212 69.1059
lradius 29.7198
lwrist -11.3498
lhand -5.78528 -8.42708
lfingers 7.12502
lthumb 20.0388 20.5596
rfemur -34.7832 -3.65306 22.553
rtibia 45.6062
rfoot -26.552 4.61634
rtoes -10.3895
lfemur -36.2472 0.372492 -21.229
ltibia 51.7703
lfoot -30.1617 -0.769676
ltoes -1.17411
5
root -42.7765 17.2122 -1.16751 615.481 90.2513 -1918.83
lowerback 37.1698 -2.3606 -1.10865
upperback 9.41411 -2.36442 -1.94528
thorax -7.95827 -0.592085 -0.64571
lowerneck -6.22824 0.369938 -7.13415
upperneck -6.46255 1.08507 1.23732
head -1.01955 0.767759 1.60429
rclavicle -4.77083e-015 1.19271e-014
rhumerus -63.011 -6.19867 -71.0182
rradius 15.8833
rwrist 25.6962
rhand -14.2764 19.3411
rfingers 7.12502
rthumb 11.8626 -10.3029
lclavicle -4.77083e-015 1.19271e-014
lhumerus -63.3476 17.5695 69.1868
lradius 29.5672
lwrist -10.2914
lhand -5.68646 -8.37887
lfingers 7.12502
lthumb 20.1337 20.5978
rfemur -36.0473 -3.92754 22.5641
rtibia 47.7021
rfoot -26.8714 5.04776
rtoes -10.1579
lfemur -37.1091 0.146193 -21.2579
ltibia 53.3369
lfoot -30.5571 -0.425825
ltoes -0.319438
6
root -42.7239 17.119 -1.16991 609.911 90.2696 -1924.53
lowerback 37.5272 -2.32784 -1.14616
upperback 9.26525 -2.35014 -1.9148
thorax -8.2428 -0.584964 -0.593414
lowerneck -6.35172 0.313642 -7.04287
upperneck -6.80038 1.0183 1.09006
head -1.10126 0.74675 1.53979
rclavicle -3.97569e-015 7.55382e-015
rhumerus -62.3086 -6.86316 -70.7802
rradius 15.7302
rwrist 24.0589
rhand -14.1373 19.0557
rfingers 7.12502
rthumb 11.9967 -10.5805
lclavicle -3.97569e-015 7.55382e-015
lhumerus -62.9096 18.1164 69.2614
lradius 29.3027
lwrist -9.44362
lhand -5.80165 -8.50229
lfingers 7.12502
lthumb 20.023 20.486
rfemur -37.2582 -4.19207 22.6003
rtibia 49.8505
rfoot -27.1889 5.41743
rtoes -9.85012
lfemur -37.9117 -0.164021 -21.251
ltibia 54.9522
lfoot -30.9811 -0.0203585
ltoes 0.618049
7
root -42.6701 17.0199 -1.17377 606.904 90.3131 -1927.57
lowerback 37.9904 -2.30704 -1.19348
upperback 9.09277 -2.35718 -1.89844
thorax -8.58943 -0.585748 -0.541487
lowerneck -6.54054 0.271702 -6.95382
upperneck -7.05287 0.97508 0.934856
head -1.14611 0.735499 1.47364
rclavicle 2.78299e-014 1.86858e-014
rhumerus -61.5789 -7.55044 -70.6028
rradius 15.6601
rwrist 22.5811
rhand -14.0067 18.5241
rfingers 7.12502
rthumb 12.1226 -11.1047
lclavicle 2.78299e-014 1.86858e-014
lhumerus -62.3362 18.6595 69.4315
lradius 29.0695
lwrist -8.5064
lhand -6.00269 -8.65498
lfingers 7.12502
lthumb 19.8298 20.3534
rfemur -38.4098 -4.40122 22.5719
rtibia 52.0378
rfoot -27.5085 5.76513
rtoes -9.43424
lfemur -38.6314 -0.515076 -21.2748
ltibia 56.5939
lfoot -31.4148 0.379352
ltoes 1.77012
8
root -42.6131 16.9179 -1.17693 600.768 90.3411 -1933.68
lowerback 38.5054 -2.26993 -1.23614
upperback 8.92378 -2.33988 -1.86984
thorax -8.94803 -0.574082 -0.488312
lowerneck -6.75169 0.21507 -6.88046
upperneck -7.2754 0.915776 0.81726
head -1.17764 0.715488 1.42245
rclavicle -4.77083e-015 3.57812e-015
rhumerus -60.8024 -7.79043 -71.1443
rradius 15.9104
rwrist 20.2713
rhand -13.8771 17.5125
rfingers 7.12502
rthumb 12.2476 -12.1089
lclavicle -4.77083e-015 3.57812e-015
lhumerus -61.6317 19.0804 69.8002
lradius 28.9781
lwrist -7.40225
lhand -6.37869 -8.86986
lfingers 7.12502
lthumb 19.4683 20.1755
rfemur -39.4936 -4.55961 22.5626
rtibia 54.2381
rfoot -27.7814 6.09284
rtoes -8.98871
lfemur -39.2658 -0.853586 -21.2782
ltibia 58.2551
lfoot -31.8802 0.818115
ltoes 2.75995
9
root -42.5541 16.8134 -1.18089 598.841 90.3786 -1935.48
lowerback 39.1176 -2.24687 -1.26423
upperback 8.7295 -2.33728 -1.85119
thorax -9.36705 -0.567516 -0.446591
lowerneck -6.89816 0.156658 -6.87521
upperneck -7.53523 0.854168 0.746304
head -1.23296 0.696591 1.39826
rclavicle 2.38542e-015 -4.77083e-015
rhumerus -59.943 -7.93057 -71.8254
rradius 16.2184
rwrist 17.8803
rhand -13.8353 16.3611
rfingers 7.12502
rthumb 12.2879 -13.2579
lclavicle 2.38542e-015 -4.77083e-015
lhumerus -60.8776 19.2952 70.4315
lradius 29.1985
lwrist -6.00828
lhand -6.83869 -8.91773
lfingers 7.12502
lthumb 19.026 20.1717
rfemur -40.5113 -4.71393 22.5164
rtibia 56.498
rfoot -28.0768 6.36368
rtoes -8.59998
lfemur -39.8059 -1.20602 -21.3206
ltibia 59.9667
lfoot -32.3569 1.25999
ltoes 3.92962
10
root -42.4906 16.7073 -1.18728 592.833 90.4145 -1941.28
lowerback 39.7335 -2.22279 -1.28536
upperback 8.5714 -2.32222 -1.80553
thorax -9.74353 -0.554273 -0.385496
lowerneck -7.13911 0.0946777 -6.94193
upperneck -7.72117 0.800964 0.68449
head -1.25016 0.682246 1.38977
rclavicle 6.36111e-015 -7.95139e-015
rhumerus -58.807 -8.34555 -72.1824
rradius 16.2948
rwrist 15.8438
rhand -14.0246 15.3513
rfingers 7.12502
rthumb 12.1054 -14.2785
lclavicle 6.36111e-015 -7.95139e-015
lhumerus -60.0109 19.4821 71.2397
lradius 29.6777
lwrist -4.50993
lhand -7.35034 -9.00538
lfingers 7.12502
lthumb 18.5339 20.1317
rfemur -41.4117 -4.81155 22.4588
rtibia 58.7418
rfoot -28.2798 6.65255
rtoes -8.20456
lfemur -40.2037 -1.57872 -21.3541
ltibia 61.654
lfoot -32.9247 1.73027
ltoes 4.962
11
root -42.4276 16.5782 -1.19327 589.889 90.4403 -1943.92
lowerback 40.3767 -2.21469 -1.27668
upperback 8.39973 -2.31984 -1.79251
thorax -10.1449 -0.546088 -0.369569
lowerneck -7.16172 0.0574689 -6.90487
upperneck -8.00209 0.752405 0.579608
head -1.3333 0.669389 1.34903
rclavicle 1.27222e-014 -2.34566e-014
rhumerus -57.6151 -8.59601 -72.839
rradius 16.5032
rwrist 13.658
rhand -14.3938 14.3568
rfingers 7.12502
rthumb 11.7494 -15.2937
lclavicle 1.27222e-014 -2.34566e-014
lhumerus -59.0274 19.4785 72.1538
lradius 30.2767
lwrist -2.79553
lhand -7.9749 -9.0847
lfingers 7.12502
lthumb 17.933 20.1085
rfemur -42.2962 -4.89107 22.3804
rtibia 61.0656
rfoot -28.3872 6.90549
rtoes -7.71734
lfemur -40.6011 -1.94676 -21.419
ltibia 63.4329
lfoot -33.4899 2.24124
ltoes 5.97771
12
root -42.357 16.4704 -1.19907 586.688 90.4948 -1946.78
lowerback 40.7411 -2.19604 -1.26546
upperback 8.33528 -2.29462 -1.79485
thorax -10.3347 -0.52928 -0.385008
lowerneck -6.80283 0.0229917 -6.96617
upperneck -8.51936 0.680701 0.522823
head -1.55718 0.653213 1.34144
rclavicle 3.97569e-014 -9.93923e-015
rhumerus -56.248 -8.92615 -73.5155
rradius 16.7845
rwrist 11.653
rhand -14.9686 13.5467
rfingers 7.12502
rthumb 11.195 -16.1347
lclavicle 3.97569e-014 -9.93923e-015
lhumerus -57.7628 19.5511 73.0188
lradius 30.6787
lwrist -1.3184
lhand -8.6574 -9.39499
lfingers 7.12502
lthumb 17.2762 19.8571
rfemur -43.0104 -4.93597 22.2757
rtibia 63.2773
rfoot -28.387 7.11246
rtoes -7.24795
lfemur -40.7895 -2.28587 -21.5081
ltibia 65.0648
lfoot -34.1098 2.69029
ltoes 7.01882
13
root -42.2827 16.3621 -1.20637 583.011 90.4976 -1950.09
lowerback 41.0717 -2.21869 -1.20365
upperback 8.26588 -2.299 -1.78507
thorax -10.5202 -0.527722 -0.401419
lowerneck -6.35593 0.00889818 -7.07046
upperneck -9.05462 0.630214 0.502074
head -1.80548 0.648985 1.35426
rclavicle 7.95139e-016 6.36111e-015
rhumerus -54.8078 -9.06027 -74.403
rradius 17.2906
rwrist 9.63007
rhand -15.7632 12.9532
rfingers 7.12502
rthumb 10.4286 -16.7682
lclavicle 7.95139e-016 6.36111e-015
lhumerus -56.3328 19.7459 73.8129
lradius 30.9662
lwrist 0.0153754
lhand -9.23362 -9.83433
lfingers 7.12502
lthumb 16.7215 19.4655
rfemur -43.6503 -4.9673 22.1943
rtibia 65.4502
rfoot -28.3511 7.26883
rtoes -6.95169
lfemur -40.9061 -2.65637 -21.5667
ltibia 66.6671
lfoot -34.7554 3.1394
ltoes 8.0506
